<?xml version="1.0" encoding="utf-8"?>
<svg
  width = "51"
  height = "28"
  viewBox = "0 0 51 28"
  fill = "none"
  xmlns = "http://www.w3.org/2000/svg"
>
  <style>
    @media (prefers-color-scheme: dark) { path { fill: white; } }
    @media (prefers-color-scheme: light) { path { fill: black; } }
  </style>
  <g>
    <path d = "M2.23722 13.9006Q2.23722 11.0817 2.97177 8.71395Q3.70632 6.34624 5.07102 4.35511L6.62216 4.35511Q5.90625 5.33949 5.32457 6.90554Q4.7429 8.47159 4.39986 10.2986Q4.05682 12.1257 4.05682 13.9006Q4.05682 15.6754 4.39986 17.5025Q4.7429 19.3295 5.32457 20.8956Q5.90625 22.4616 6.62216 23.446L5.07102 23.446Q3.70632 21.4549 2.97177 19.0872Q2.23722 16.7195 2.23722 13.9006ZM13.6321 20.5824Q12.081 20.5824 10.9139 19.8441Q9.7468 19.1058 9.09428 17.7784Q8.44176 16.451 8.44176 14.6761Q8.44176 12.8864 9.09428 11.5515Q9.7468 10.2166 10.9139 9.47834Q12.081 8.74006 13.6321 8.74006Q15.1832 8.74006 16.3503 9.47834Q17.5174 10.2166 18.1699 11.5515Q18.8224 12.8864 18.8224 14.6761Q18.8224 16.451 18.1699 17.7784Q17.5174 19.1058 16.3503 19.8441Q15.1832 20.5824 13.6321 20.5824ZM13.6321 19.0014Q14.8104 19.0014 15.571 18.3974Q16.3317 17.7933 16.6971 16.8089Q17.0625 15.8246 17.0625 14.6761Q17.0625 13.5277 16.6971 12.5359Q16.3317 11.544 15.571 10.9325Q14.8104 10.321 13.6321 10.321Q12.4538 10.321 11.6932 10.9325Q10.9325 11.544 10.5671 12.5359Q10.2017 13.5277 10.2017 14.6761Q10.2017 15.8246 10.5671 16.8089Q10.9325 17.7933 11.6932 18.3974Q12.4538 19.0014 13.6321 19.0014Z"
          transform = "translate(0 2.317)"
          fill = "#FFFFFF"/>
    <path d = "M10.8794 22.0869Q9.88477 22.9072 8.55176 22.9072Q6.98291 22.9072 5.53711 21.6563Q4.10156 22.9072 2.58398 22.9072Q1.26123 22.9072 0.205078 22.1177L0.205078 20.395Q1.33301 21.4922 2.52246 21.4922Q3.50684 21.4922 4.51172 20.6309Q2.12256 18.2622 2.12256 15.75Q2.12256 14.0684 3.05566 12.9917Q3.98877 11.915 5.58838 11.915Q7.17773 11.915 8.06982 12.9558Q8.96191 13.9966 8.96191 15.6885Q8.96191 18.2725 6.59326 20.6309Q7.6084 21.4922 8.63379 21.4922Q9.79248 21.4922 10.8794 20.436L10.8794 22.0869Z"
          transform = "translate(19.896 0)"
          fill = "#FFFFFF"/>
    <path d = "M6.2642 20.5824Q4.71307 20.5824 3.54599 19.8441Q2.37891 19.1058 1.72639 17.7784Q1.07386 16.451 1.07386 14.6761Q1.07386 12.8864 1.72639 11.5515Q2.37891 10.2166 3.54599 9.47834Q4.71307 8.74006 6.2642 8.74006Q7.81534 8.74006 8.98242 9.47834Q10.1495 10.2166 10.802 11.5515Q11.4545 12.8864 11.4545 14.6761Q11.4545 16.451 10.802 17.7784Q10.1495 19.1058 8.98242 19.8441Q7.81534 20.5824 6.2642 20.5824ZM6.2642 19.0014Q7.44247 19.0014 8.20313 18.3974Q8.96378 17.7933 9.32919 16.8089Q9.6946 15.8246 9.6946 14.6761Q9.6946 13.5277 9.32919 12.5359Q8.96378 11.544 8.20313 10.9325Q7.44247 10.321 6.2642 10.321Q5.08594 10.321 4.32528 10.9325Q3.56463 11.544 3.19922 12.5359Q2.83381 13.5277 2.83381 14.6761Q2.83381 15.8246 3.19922 16.8089Q3.56463 17.7933 4.32528 18.3974Q5.08594 19.0014 6.2642 19.0014ZM17.6591 13.9006Q17.6591 16.7195 16.9245 19.0872Q16.19 21.4549 14.8253 23.446L13.2741 23.446Q13.9901 22.4616 14.5717 20.8956Q15.1534 19.3295 15.4964 17.5025Q15.8395 15.6754 15.8395 13.9006Q15.8395 12.1257 15.4964 10.2986Q15.1534 8.47159 14.5717 6.90554Q13.9901 5.33949 13.2741 4.35511L14.8253 4.35511Q16.19 6.34624 16.9245 8.71395Q17.6591 11.0817 17.6591 13.9006Z"
          transform = "translate(30.991 2.317)"
          fill = "#FFFFFF"/>
  </g>
</svg>